<?xml version="1.0" encoding="UTF-8"?>
<!DOCTYPE svg PUBLIC "-//W3C//DTD SVG 1.1//EN" "http://www.w3.org/Graphics/SVG/1.1/DTD/svg11.dtd">
<svg xmlns="http://www.w3.org/2000/svg" version="1.1" width="4047px" height="1097px" style="shape-rendering:geometricPrecision; text-rendering:geometricPrecision; image-rendering:optimizeQuality; fill-rule:evenodd; clip-rule:evenodd" xmlns:xlink="http://www.w3.org/1999/xlink">
<g><path style="opacity:0.978" fill="#8c52ff" d="M 638.5,281.5 C 651.261,281.017 663.928,281.85 676.5,284C 697.688,290.233 707.688,304.566 706.5,327C 706.148,354.685 692.148,369.352 664.5,371C 653.131,371.793 641.798,371.46 630.5,370C 606.125,365.767 594.791,351.267 596.5,326.5C 594.511,307.293 602.178,293.793 619.5,286C 625.861,284.06 632.195,282.56 638.5,281.5 Z"/></g>
<g><path style="opacity:0.988" fill="#8c52ff" d="M 1925.5,315.5 C 1934.17,315.334 1942.84,315.5 1951.5,316C 1969.44,318.606 1980.27,328.773 1984,346.5C 1985.07,356.63 1985.57,366.796 1985.5,377C 1983.72,472.727 1983.22,569.227 1984,666.5C 1981.45,685.05 1970.95,695.55 1952.5,698C 1938.51,699.204 1925.18,696.87 1912.5,691C 1910.29,689.127 1908.46,686.96 1907,684.5C 1905.46,679.116 1903.79,673.783 1902,668.5C 1877.81,697.128 1846.97,708.628 1809.5,703C 1769.82,698.304 1742.65,677.471 1728,640.5C 1716.96,606.687 1712.96,572.02 1716,536.5C 1717.59,504.81 1726.59,475.477 1743,448.5C 1771.88,408.651 1810.05,395.484 1857.5,409C 1872.46,415.958 1884.29,426.458 1893,440.5C 1892.9,423.854 1892.73,407.187 1892.5,390.5C 1892.37,374.79 1892.87,359.124 1894,343.5C 1899.07,327.921 1909.57,318.587 1925.5,315.5 Z M 1848.5,474.5 C 1870.19,473.405 1885.02,482.738 1893,502.5C 1893.13,539.843 1892.46,577.176 1891,614.5C 1880.82,624.567 1868.48,629.567 1854,629.5C 1828.85,629.685 1812.85,617.685 1806,593.5C 1801.76,574.054 1800.43,554.388 1802,534.5C 1802.66,518.519 1807.33,503.853 1816,490.5C 1824.61,480.473 1835.45,475.14 1848.5,474.5 Z"/></g>
<g><path style="opacity:0.987" fill="#8c52ff" d="M 1113.5,317.5 C 1125.73,316.936 1137.4,319.102 1148.5,324C 1159.38,331.594 1165.21,342.094 1166,355.5C 1166.34,411.064 1166.51,466.398 1166.5,521.5C 1187.26,507.239 1202.76,488.572 1213,465.5C 1217.36,454.127 1221.69,442.794 1226,431.5C 1233.46,417.709 1244.96,409.875 1260.5,408C 1273.29,406.877 1285.95,407.544 1298.5,410C 1320.73,419.334 1326.9,435.168 1317,457.5C 1300.13,491.865 1274.97,518.198 1241.5,536.5C 1269.33,538.869 1289.83,552.203 1303,576.5C 1315.77,602.131 1325.77,628.797 1333,656.5C 1336.06,678.421 1326.89,691.921 1305.5,697C 1291.83,698.975 1278.16,698.975 1264.5,697C 1249.43,693.253 1238.6,684.42 1232,670.5C 1226.33,653.167 1220.67,635.833 1215,618.5C 1211.23,607.084 1205.4,596.917 1197.5,588C 1188.02,581.024 1177.35,578.19 1165.5,579.5C 1166.19,607.028 1166.36,634.361 1166,661.5C 1163.96,680.869 1153.46,692.702 1134.5,697C 1123.1,699.106 1111.77,698.773 1100.5,696C 1085.5,690.672 1076.67,680.172 1074,664.5C 1074.65,560.166 1074.65,455.833 1074,351.5C 1078.69,330.312 1091.85,318.979 1113.5,317.5 Z"/></g>
<g><path style="opacity:0.987" fill="#8c52ff" d="M 2767.5,317.5 C 2782.14,316.326 2795.48,319.826 2807.5,328C 2813.86,334.552 2817.69,342.385 2819,351.5C 2819.99,362.977 2820.49,374.477 2820.5,386C 2819.23,474.734 2819.23,563.401 2820.5,652C 2820.01,682.809 2804.34,698.309 2773.5,698.5C 2738.87,697.333 2723.21,679.333 2726.5,644.5C 2727.45,598.005 2728.11,551.505 2728.5,505C 2727.86,455.161 2727.36,405.328 2727,355.5C 2730.05,331.619 2743.55,318.953 2767.5,317.5 Z"/></g>
<g><path style="opacity:0.988" fill="#323332" d="M 2943.5,333.5 C 2955.03,332.869 2966.36,334.036 2977.5,337C 2990.94,342.778 2998.77,352.945 3001,367.5C 3001.33,407.5 3001.67,447.5 3002,487.5C 3020.67,476.833 3035.33,462.167 3046,443.5C 3051.55,433.074 3056.55,422.408 3061,411.5C 3066.98,393.594 3072.64,375.594 3078,357.5C 3088.63,339.262 3104.63,331.262 3126,333.5C 3163.23,333.006 3177.23,350.673 3168,386.5C 3156.46,421.256 3139.46,452.923 3117,481.5C 3110.55,488.955 3103.22,495.288 3095,500.5C 3094.52,501.448 3094.35,502.448 3094.5,503.5C 3113.69,505.515 3129.19,514.182 3141,529.5C 3151.69,546.23 3159.69,564.23 3165,583.5C 3170.54,604.449 3175.87,625.449 3181,646.5C 3184.21,659.893 3182.54,672.56 3176,684.5C 3168.13,693.182 3158.3,697.682 3146.5,698C 3132.53,699.467 3118.87,698.133 3105.5,694C 3095.55,688.72 3088.39,680.887 3084,670.5C 3078.05,644.413 3071.72,618.413 3065,592.5C 3061.25,580.997 3055.91,570.33 3049,560.5C 3041.95,553.147 3033.29,549.48 3023,549.5C 3016.05,549.873 3009.22,550.873 3002.5,552.5C 3001.67,590.162 3001.17,627.829 3001,665.5C 2997.95,682.88 2987.79,693.38 2970.5,697C 2957.1,699.181 2943.76,698.848 2930.5,696C 2914.94,690.735 2906.1,679.902 2904,663.5C 2903.33,564.833 2903.33,466.167 2904,367.5C 2905.84,353.674 2913.01,343.841 2925.5,338C 2931.48,335.839 2937.48,334.339 2943.5,333.5 Z"/></g>
<g><path style="opacity:0.985" fill="#8c52ff" d="M 870.5,402.5 C 894.068,401.464 917.402,403.297 940.5,408C 966.114,413.367 984.947,427.534 997,450.5C 1001.06,459.445 1002.4,468.778 1001,478.5C 995.987,494.158 985.154,502.324 968.5,503C 958.179,504.114 948.513,502.114 939.5,497C 931.929,488.519 924.596,479.852 917.5,471C 914.205,468.566 910.538,466.899 906.5,466C 891.156,462.059 876.156,463.059 861.5,469C 850.49,479.21 848.656,491.043 856,504.5C 862.018,512.167 869.851,517 879.5,519C 900.758,523.37 922.092,527.37 943.5,531C 994.242,541.588 1016.08,572.755 1009,624.5C 1002.15,662.681 979.987,686.847 942.5,697C 907.455,705.373 872.122,706.706 836.5,701C 814.13,697.731 794.963,688.231 779,672.5C 767.962,659.094 763.295,643.76 765,626.5C 770.112,612.336 780.279,604.502 795.5,603C 809.55,600.298 821.383,604.132 831,614.5C 836.767,624.224 843.601,633.057 851.5,641C 868.69,646.623 886.024,646.956 903.5,642C 919.878,635.743 925.378,624.243 920,607.5C 914.536,597.003 906.036,590.169 894.5,587C 871.88,582.119 849.214,577.452 826.5,573C 784.139,562.458 763.472,535.292 764.5,491.5C 763.956,454.393 780.623,428.559 814.5,414C 832.749,407.518 851.416,403.684 870.5,402.5 Z"/></g>
<g><path style="opacity:0.986" fill="#8c52ff" d="M 1515.5,402.5 C 1542.35,400.789 1568.35,404.622 1593.5,414C 1625.76,429.282 1645.93,454.448 1654,489.5C 1659.98,516.661 1660.98,543.994 1657,571.5C 1655.79,573.049 1654.29,574.215 1652.5,575C 1596.17,575.5 1539.83,575.667 1483.5,575.5C 1482.7,594.307 1487.2,611.64 1497,627.5C 1506.48,637.941 1518.31,642.608 1532.5,641.5C 1545.65,642.38 1557.65,639.213 1568.5,632C 1575.47,626.032 1582.14,619.699 1588.5,613C 1595.2,608.659 1602.53,606.825 1610.5,607.5C 1621.41,607.227 1631.41,610.06 1640.5,616C 1648.73,623.023 1651.56,631.856 1649,642.5C 1644.22,660.943 1633.72,675.11 1617.5,685C 1595.36,696.699 1571.69,702.699 1546.5,703C 1449.48,709.315 1399.31,663.815 1396,566.5C 1393.29,534.266 1397.29,502.933 1408,472.5C 1421.8,440.036 1445.63,418.869 1479.5,409C 1491.5,406.057 1503.5,403.891 1515.5,402.5 Z M 1520.5,463.5 C 1544.97,461.159 1560.14,471.825 1566,495.5C 1567.91,505.408 1568.74,515.408 1568.5,525.5C 1540.17,525.5 1511.83,525.5 1483.5,525.5C 1482.52,509.913 1485.68,495.246 1493,481.5C 1499.72,471.592 1508.88,465.592 1520.5,463.5 Z"/></g>
<g><path style="opacity:0.987" fill="#323332" d="M 3366.5,402.5 C 3396.42,400.225 3425.09,405.059 3452.5,417C 3477.58,430.759 3494.75,451.259 3504,478.5C 3516.21,521.014 3518.21,564.014 3510,607.5C 3500.5,658.326 3470.67,689.493 3420.5,701C 3390.28,706.38 3360.28,705.38 3330.5,698C 3296.05,687.213 3272.21,665.046 3259,631.5C 3247.73,596.308 3244.07,560.308 3248,523.5C 3254.23,450.106 3293.73,409.772 3366.5,402.5 Z M 3373.5,467.5 C 3397.96,464.307 3413.13,474.641 3419,498.5C 3426.24,534.51 3426.24,570.51 3419,606.5C 3408.96,638.439 3388.79,647.272 3358.5,633C 3350.64,625.795 3345.48,616.962 3343,606.5C 3341.15,599.259 3339.82,591.926 3339,584.5C 3337.52,566.19 3337.19,547.857 3338,529.5C 3338.25,513.315 3341.92,497.982 3349,483.5C 3355.02,474.75 3363.18,469.417 3373.5,467.5 Z"/></g>
<g><path style="opacity:0.985" fill="#8c52ff" d="M 641.5,407.5 C 655.669,405.805 669.002,408.305 681.5,415C 691.85,423.698 697.017,434.864 697,448.5C 697.053,520.307 696.72,592.307 696,664.5C 691.143,687.875 676.643,699.208 652.5,698.5C 626.372,698.862 611.539,686.195 608,660.5C 607.428,587.985 607.094,515.652 607,443.5C 609.551,422.785 621.051,410.785 641.5,407.5 Z"/></g>
<g><path style="opacity:0.987" fill="#8c52ff" d="M 2095.5,407.5 C 2110.34,405.637 2124.34,408.137 2137.5,415C 2149.03,425.752 2154.37,439.085 2153.5,455C 2152.35,500.153 2152.18,545.32 2153,590.5C 2156.49,614.656 2170.32,625.156 2194.5,622C 2209.14,617.354 2218.31,607.521 2222,592.5C 2223.52,586.925 2224.52,581.258 2225,575.5C 2225.56,555.335 2226.06,535.168 2226.5,515C 2225.75,491.014 2225.58,466.847 2226,442.5C 2227.95,424.882 2237.45,413.715 2254.5,409C 2264.12,407.509 2273.79,407.176 2283.5,408C 2300.17,410.347 2311.01,419.513 2316,435.5C 2317.88,444.057 2318.71,452.724 2318.5,461.5C 2317.72,527.829 2317.22,594.163 2317,660.5C 2315.84,697.298 2306.18,731.631 2288,763.5C 2263.49,799.191 2229.66,820.357 2186.5,827C 2159.5,831.609 2132.5,831.609 2105.5,827C 2084.03,821.858 2073.37,808.191 2073.5,786C 2074.27,762.838 2086.27,750.505 2109.5,749C 2132.67,750.531 2155.67,749.198 2178.5,745C 2205.05,738.783 2222.22,722.616 2230,696.5C 2235.28,677.812 2237.45,658.812 2236.5,639.5C 2211.35,695.63 2169.01,715.13 2109.5,698C 2086.51,689.006 2072.01,672.506 2066,648.5C 2063.47,638.646 2061.8,628.646 2061,618.5C 2060.81,563.492 2060.31,508.492 2059.5,453.5C 2058.65,427.772 2070.65,412.438 2095.5,407.5 Z"/></g>
<g><path style="opacity:0.986" fill="#8c52ff" d="M 2430.5,407.5 C 2445.34,405.637 2459.34,408.137 2472.5,415C 2484.18,425.855 2489.51,439.355 2488.5,455.5C 2487.85,478.987 2487.52,502.487 2487.5,526C 2487.36,550.201 2487.86,574.367 2489,598.5C 2496.2,627.019 2513.04,634.852 2539.5,622C 2552.7,609.421 2559.54,593.921 2560,575.5C 2560.33,563.167 2560.67,550.833 2561,538.5C 2561.02,506.223 2561.02,474.223 2561,442.5C 2563.83,422.339 2575.33,410.839 2595.5,408C 2635.84,403.176 2655.17,421.01 2653.5,461.5C 2652.72,529.496 2652.22,597.496 2652,665.5C 2648.99,687.344 2636.49,698.344 2614.5,698.5C 2603.03,698.467 2592.36,695.633 2582.5,690C 2578.24,686.642 2575.07,682.475 2573,677.5C 2571.12,669.113 2569.12,660.78 2567,652.5C 2548.28,687.119 2519.11,704.119 2479.5,703.5C 2438.88,704.798 2412.72,686.132 2401,647.5C 2398.31,637.673 2396.64,627.673 2396,617.5C 2395.81,562.656 2395.31,507.823 2394.5,453C 2393.86,427.504 2405.86,412.338 2430.5,407.5 Z"/></g>
</svg>
